# xmcd
#
# Track frame offsets:
# 150
# 20028
# 38855
# 53885
# 66220
# 79395
# 92565
# 104935
# 123675
# 145223
# 161528
# 170205
# 193878
#
# Disc length: 3070 seconds
#
# Revision: 1
# Processed by: cddbd v1.5.1PL0 Copyright (c) Steve Scherf et al.
# Submitted via: inCDius 2.0b9
#
DISCID=c80bfc0d
DTITLE=Leslie West - Dodgin' The Dirt
DYEAR=1900
DGENRE=
TTITLE0=Whiskey Train
TTITLE1=Daddy Are You Angry
TTITLE2=New York State Of Mind
TTITLE3=Sambuca
TTITLE4=Juke Joint Jumpin'
TTITLE5=Easy Street
TTITLE6=One Last Lick
TTITLE7=Cross Cust Saw
TTITLE8=Hang Me Out To Dry
TTITLE9=Wasted Years
TTITLE10=My Friend Sam
TTITLE11=Thunderbird
TTITLE12=Red House
EXTD=
EXTT0=
EXTT1=
EXTT2=
EXTT3=
EXTT4=
EXTT5=
EXTT6=
EXTT7=
EXTT8=
EXTT9=
EXTT10=
EXTT11=
EXTT12=
PLAYORDER=
